<svg width="1250" height="1000" xmlns="http://www.w3.org/2000/svg" sodipodiDocname="dreen_11-04.eps" xml:space="preserve" version="1.1" xmlnsInkscape="http://www.inkscape.org/namespaces/inkscape" xmlnsSodipodi="http://sodipodi.sourceforge.net/DTD/sodipodi-0.dtd" xmlnsSvg="http://www.w3.org/2000/svg" xmlnsRdf="http://www.w3.org/1999/02/22-rdf-syntax-ns#" xmlnsCc="http://creativecommons.org/ns#" xmlnsDc="http://purl.org/dc/elements/1.1/">
 <metadata id="metadata8">image/svg+xml</metadata>

 <g>
  <title>Layer 1</title>
  <g transform="matrix(2.32402 0 0 -2.32402 -761.252 1191.15)" inkscapeLabel="ink_ext_XXXXXX" inkscapeGroupmode="layer" id="g10">
   <g transform="translate(1.42109e-14 0) scale(0.1 0.1)" id="g12">
    <path fill-rule="nonzero" fill="#FFFFFF" id="path14" d="m4697.70322,2873.48178c0,867.09 702.91,1570 1570,1570c666.93,0 1236.66,-415.89 1464.18,-1002.44c-169.05,684.7 -787.27,1192.44 -1524.18,1192.44c-867.09,0 -1570,-702.91 -1570,-1570c0,-200.16 37.53,-391.53 105.81,-567.56c-29.86,120.95 -45.81,247.38 -45.81,377.56"/>
    <path fill-rule="nonzero" fill="#FFFFFF" id="path16" d="m7243.51322,3005.92178c0,-867.09 -702.91,-1570 -1570,-1570c-666.93,0 -1236.65,415.88 -1464.18,1002.43c169.05,-684.69 787.27,-1192.43 1524.18,-1192.43c867.09,0 1570,702.91 1570,1570c0,200.15 -37.53,391.53 -105.81,567.56c29.86,-120.95 45.81,-247.39 45.81,-377.56"/>
    <path fill-rule="nonzero" fill="#000000" id="path18" d="m5904.39322,4212.61178c867.08,0 1570,-702.92 1570,-1570c0,-666.93 -415.89,-1236.66 -1002.44,-1464.19c684.7,169.06 1192.44,787.28 1192.44,1524.19c0,867.08 -702.92,1570 -1570,1570c-200.16,0 -391.53,-37.53 -567.57,-105.82c120.96,29.87 247.39,45.82 377.57,45.82"/>
    <path fill-rule="nonzero" fill="#000000" id="path20" d="m6036.82322,1666.79178c-867.08,0 -1570,702.91 -1570,1570c0,666.93 415.89,1236.66 1002.44,1464.18c-684.7,-169.05 -1192.44,-787.27 -1192.44,-1524.18c0,-867.09 702.92,-1570 1570,-1570c200.16,0 391.53,37.53 567.57,105.81c-120.96,-29.86 -247.39,-45.81 -377.57,-45.81"/>
   </g>
  </g>
 </g>
</svg>